<?xml version="1.0" encoding="UTF-8" standalone="no"?>
<svg
   xmlns:dc="http://purl.org/dc/elements/1.1/"
   xmlns:cc="http://creativecommons.org/ns#"
   xmlns:rdf="http://www.w3.org/1999/02/22-rdf-syntax-ns#"
   xmlns:svg="http://www.w3.org/2000/svg"
   xmlns="http://www.w3.org/2000/svg"
   xmlns:sodipodi="http://sodipodi.sourceforge.net/DTD/sodipodi-0.dtd"
   xmlns:inkscape="http://www.inkscape.org/namespaces/inkscape"
   overflow="visible"
   id="svg2985"
   version="1.1"
   inkscape:version="0.48.3.1 r9886"
   width="256"
   height="256"
   sodipodi:docname="icon_2.svg"
   style="overflow:visible"
   inkscape:export-filename="E:\SkyDrive\SimpleListsOfCloud\icon_200.png"
   inkscape:export-xdpi="70.3125"
   inkscape:export-ydpi="70.3125">
  <metadata
     id="metadata2994">
    <rdf:RDF>
      <cc:Work
         rdf:about="">
        <dc:format>image/svg+xml</dc:format>
        <dc:type
           rdf:resource="http://purl.org/dc/dcmitype/StillImage" />
        <dc:title />
      </cc:Work>
    </rdf:RDF>
  </metadata>
  <defs
     id="defs2992" />
  <sodipodi:namedview
     pagecolor="#ffffff"
     bordercolor="#666666"
     borderopacity="1"
     objecttolerance="10"
     gridtolerance="10"
     guidetolerance="10"
     inkscape:pageopacity="0"
     inkscape:pageshadow="2"
     inkscape:window-width="1170"
     inkscape:window-height="733"
     id="namedview2990"
     showgrid="false"
     inkscape:zoom="1.7940592"
     inkscape:cx="148.8309"
     inkscape:cy="148.41737"
     inkscape:window-x="1627"
     inkscape:window-y="140"
     inkscape:window-maximized="0"
     inkscape:current-layer="svg2985"
     borderlayer="true"
     inkscape:showpageshadow="false" />
  <rect
     style="fill:#1488ff;fill-opacity:1;stroke:none"
     id="rect3821"
     width="300.99341"
     height="299.87863"
     x="-23.410599"
     y="-24.927193" />
  <rect
     id="Rect"
     width="0"
     height="0"
     x="0"
     y="-796.36218"
     style="fill:#ffffff" />
  <path
     d=""
     id="path2988"
     inkscape:connector-curvature="0"
     style="fill:#0085ff" />
  <g
     style="overflow:visible"
     id="g3014">
    <rect
       id="Rect-1"
       width="0"
       height="0"
       x="0"
       y="0"
       style="fill:#ffffff" />
    <path
       id="path3006"
       d=""
       inkscape:connector-curvature="0"
       style="fill:#0085ff" />
  </g>
  <g
     id="g3006">
    <g
       id="g3002">
      <path
         style="fill:#ffffff;fill-opacity:1;fill-rule:evenodd;stroke:#ffffff;stroke-width:0.71807772px;stroke-linecap:butt;stroke-linejoin:miter;stroke-opacity:1"
         d="m 126.62241,71.116044 c -23.09275,0 -41.828644,17.668782 -42.137126,39.592716 -3.436248,-1.13493 -7.121929,-1.73589 -10.93853,-1.73589 -19.225952,0 -34.813061,15.58711 -34.813061,34.81306 0,19.22595 15.587109,34.78928 34.813061,34.78928 0.600811,0 1.213899,0.006 1.807235,-0.0237 l 0,0.35669 96.568201,0 0,-0.73716 c 2.24366,0.43003 4.55075,0.66582 6.91981,0.66582 20.20964,0 36.59652,-16.3631 36.59652,-36.57274 0,-20.20964 -16.38688,-36.59651 -36.59652,-36.59651 -3.56826,0 -7.01214,0.52197 -10.27271,1.47432 -2.1704,-20.237251 -20.12539,-36.025846 -41.94688,-36.025846 z m -23.89831,44.776636 48.34354,0 0,8.06122 -48.34354,0 z m 50.01162,0.0663 2.40912,3.6823 2.09999,-0.71181 -0.0183,1.10088 -2.44928,2.49684 -2.4255,-5.23147 z m -50.01162,10.58693 48.34354,0 0,8.06122 -48.34354,0 z m 49.74653,-0.62299 2.51516,4.68964 2.31206,-1.40104 -0.0713,1.47201 -2.71437,3.02702 -2.16041,-5.76165 z m -49.74653,11.27617 48.34354,0 0,8.06122 -48.34354,0 z m 0,10.65318 48.34354,0 0,8.06122 -48.34354,0 z"
         id="path3029"
         inkscape:connector-curvature="0"
         sodipodi:nodetypes="scsssccccssscscccccccccccccccccccccccccccccccccc" />
      <path
         style="fill:none;stroke:#ffffff;stroke-width:0.93305004px;stroke-linecap:butt;stroke-linejoin:miter;stroke-opacity:1"
         d="m 100.56818,152.09491 55.80472,0"
         id="path3819"
         inkscape:connector-curvature="0" />
    </g>
    <path
       transform="translate(-1.5765518,7.0944829)"
       d="m 99.773743,103.8311 c 0,10.15875 -8.235294,18.39404 -18.394043,18.39404 -10.15875,0 -18.394043,-8.23529 -18.394043,-18.39404 0,-10.158749 8.235293,-18.394043 18.394043,-18.394043 10.158749,0 18.394043,8.235294 18.394043,18.394043 z"
       sodipodi:ry="18.394043"
       sodipodi:rx="18.394043"
       sodipodi:cy="103.8311"
       sodipodi:cx="81.3797"
       id="path2997"
       style="fill:#ffffff;fill-opacity:1;stroke:#ffffff;stroke-opacity:1"
       sodipodi:type="arc" />
  </g>
</svg>
