<?xml version="1.0" encoding="UTF-8" standalone="no"?>
<svg
   xmlns:dc="http://purl.org/dc/elements/1.1/"
   xmlns:cc="http://creativecommons.org/ns#"
   xmlns:rdf="http://www.w3.org/1999/02/22-rdf-syntax-ns#"
   xmlns:svg="http://www.w3.org/2000/svg"
   xmlns="http://www.w3.org/2000/svg"
   xmlns:sodipodi="http://sodipodi.sourceforge.net/DTD/sodipodi-0.dtd"
   xmlns:inkscape="http://www.inkscape.org/namespaces/inkscape"
   overflow="visible"
   id="svg2985"
   version="1.1"
   inkscape:version="0.48.3.1 r9886"
   width="256"
   height="256"
   sodipodi:docname="icon.svg"
   style="overflow:visible">
  <metadata
     id="metadata2994">
    <rdf:RDF>
      <cc:Work
         rdf:about="">
        <dc:format>image/svg+xml</dc:format>
        <dc:type
           rdf:resource="http://purl.org/dc/dcmitype/StillImage" />
        <dc:title></dc:title>
      </cc:Work>
    </rdf:RDF>
  </metadata>
  <defs
     id="defs2992" />
  <sodipodi:namedview
     pagecolor="#ffffff"
     bordercolor="#666666"
     borderopacity="1"
     objecttolerance="10"
     gridtolerance="10"
     guidetolerance="10"
     inkscape:pageopacity="0"
     inkscape:pageshadow="2"
     inkscape:window-width="1170"
     inkscape:window-height="733"
     id="namedview2990"
     showgrid="false"
     inkscape:zoom="0.89702957"
     inkscape:cx="-59.83655"
     inkscape:cy="73.778997"
     inkscape:window-x="1627"
     inkscape:window-y="140"
     inkscape:window-maximized="0"
     inkscape:current-layer="svg2985" />
  <rect
     id="Rect"
     width="0"
     height="0"
     x="0"
     y="-796.36218"
     style="fill:#ffffff" />
  <path
     d=""
     id="path2988"
     inkscape:connector-curvature="0"
     style="fill:#0085ff" />
  <g
     style="overflow:visible"
     id="g3014">
    <rect
       id="Rect-1"
       width="0"
       height="0"
       x="0"
       y="0"
       style="fill:#ffffff" />
    <path
       id="path3006"
       d=""
       inkscape:connector-curvature="0"
       style="fill:#0085ff" />
  </g>
  <path
     style="fill:#06aaff;fill-rule:evenodd;stroke:#ffffff;stroke-width:0.94367038999999997px;stroke-linecap:butt;stroke-linejoin:miter;stroke-opacity:1;fill-opacity:1"
     d="M 127.28125 57.25 C 96.933636 57.25 72.311645 80.469641 71.90625 109.28125 C 67.390463 107.78976 62.546882 107 57.53125 107 C 32.265236 107 11.78125 127.48399 11.78125 152.75 C 11.78125 178.01601 32.265236 198.46875 57.53125 198.46875 C 58.320813 198.46875 59.12651 198.47703 59.90625 198.4375 L 59.90625 198.90625 L 186.8125 198.90625 L 186.8125 197.9375 C 189.76104 198.50263 192.79292 198.8125 195.90625 198.8125 C 222.46499 198.8125 244 177.30874 244 150.75 C 244 124.19126 222.46499 102.65625 195.90625 102.65625 C 191.21698 102.65625 186.69117 103.34221 182.40625 104.59375 C 179.55399 77.998771 155.95822 57.25 127.28125 57.25 z "
     id="path3029" />
  <rect
     style="fill:#ffffff;fill-opacity:1;stroke:none;stroke-opacity:1"
     id="rect3806"
     width="63.543056"
     height="10.590509"
     x="95.871979"
     y="116.0938" />
  <rect
     y="130.09381"
     x="95.871979"
     height="10.590509"
     width="63.543056"
     id="rect3808"
     style="fill:#ffffff;fill-opacity:1;stroke:none" />
  <rect
     style="fill:#ffffff;fill-opacity:1;stroke:none"
     id="rect3810"
     width="63.543056"
     height="10.590509"
     x="95.871979"
     y="144.09381" />
  <rect
     y="158.09381"
     x="95.871979"
     height="10.590509"
     width="63.543056"
     id="rect3812"
     style="fill:#c0c0c0;fill-opacity:1;stroke:none" />
  <path
     style="fill:#000000;fill-opacity:1;stroke:none"
     d="m 161.23501,117.14242 3.38468,5.20568 2.9761,-1.55324 -0.0985,0.74451 -3.20503,3.2737 -3.20502,-6.8679 z"
     id="rect3814"
     inkscape:connector-curvature="0"
     sodipodi:nodetypes="ccccccc" />
  <path
     sodipodi:nodetypes="ccccccc"
     inkscape:connector-curvature="0"
     id="path3817"
     d="m 161.23501,131.14242 3.38468,5.20568 2.9761,-1.55324 -0.0985,0.74451 -3.20503,3.2737 -3.20502,-6.8679 z"
     style="fill:#000000;fill-opacity:1;stroke:none" />
  <path
     style="fill:none;stroke:#000000;stroke-width:0.93305004px;stroke-linecap:butt;stroke-linejoin:miter;stroke-opacity:1"
     d="m 100.56818,164.3576 55.80472,0"
     id="path3819"
     inkscape:connector-curvature="0" />
</svg>
