<?xml version="1.0" encoding="UTF-8" standalone="no"?>
<svg
   xmlns:dc="http://purl.org/dc/elements/1.1/"
   xmlns:cc="http://creativecommons.org/ns#"
   xmlns:rdf="http://www.w3.org/1999/02/22-rdf-syntax-ns#"
   xmlns:svg="http://www.w3.org/2000/svg"
   xmlns="http://www.w3.org/2000/svg"
   xmlns:sodipodi="http://sodipodi.sourceforge.net/DTD/sodipodi-0.dtd"
   xmlns:inkscape="http://www.inkscape.org/namespaces/inkscape"
   overflow="visible"
   id="svg2985"
   version="1.1"
   inkscape:version="0.48.3.1 r9886"
   width="256"
   height="256"
   sodipodi:docname="icon_2.svg"
   style="overflow:visible"
   inkscape:export-filename="E:\SkyDrive\SimpleListsOfCloud\icon_99.png"
   inkscape:export-xdpi="34.804688"
   inkscape:export-ydpi="34.804688">
  <metadata
     id="metadata2994">
    <rdf:RDF>
      <cc:Work
         rdf:about="">
        <dc:format>image/svg+xml</dc:format>
        <dc:type
           rdf:resource="http://purl.org/dc/dcmitype/StillImage" />
        <dc:title></dc:title>
      </cc:Work>
    </rdf:RDF>
  </metadata>
  <defs
     id="defs2992" />
  <sodipodi:namedview
     pagecolor="#ffffff"
     bordercolor="#666666"
     borderopacity="1"
     objecttolerance="10"
     gridtolerance="10"
     guidetolerance="10"
     inkscape:pageopacity="0"
     inkscape:pageshadow="2"
     inkscape:window-width="1170"
     inkscape:window-height="733"
     id="namedview2990"
     showgrid="false"
     inkscape:zoom="0.89702957"
     inkscape:cx="60.688264"
     inkscape:cy="59.402218"
     inkscape:window-x="1627"
     inkscape:window-y="140"
     inkscape:window-maximized="0"
     inkscape:current-layer="svg2985" />
  <rect
     style="fill:#1488ff;fill-opacity:1;stroke:none"
     id="rect3821"
     width="300.99341"
     height="299.87863"
     x="-23.410599"
     y="-24.927193" />
  <rect
     id="Rect"
     width="0"
     height="0"
     x="0"
     y="-796.36218"
     style="fill:#ffffff" />
  <path
     d=""
     id="path2988"
     inkscape:connector-curvature="0"
     style="fill:#0085ff" />
  <g
     style="overflow:visible"
     id="g3014">
    <rect
       id="Rect-1"
       width="0"
       height="0"
       x="0"
       y="0"
       style="fill:#ffffff" />
    <path
       id="path3006"
       d=""
       inkscape:connector-curvature="0"
       style="fill:#0085ff" />
  </g>
  <path
     style="fill:#ffffff;fill-opacity:1;fill-rule:evenodd;stroke:#ffffff;stroke-width:0.94367039px;stroke-linecap:butt;stroke-linejoin:miter;stroke-opacity:1"
     d="m 127.28125,57.25 c -30.347614,0 -54.969605,23.219641 -55.375,52.03125 C 67.390463,107.78976 62.546882,107 57.53125,107 c -25.266014,0 -45.75,20.48399 -45.75,45.75 0,25.26601 20.483986,45.71875 45.75,45.71875 0.789563,0 1.59526,0.008 2.375,-0.0312 l 0,0.46875 126.90625,0 0,-0.96875 c 2.94854,0.56513 5.98042,0.875 9.09375,0.875 26.55874,0 48.09375,-21.50376 48.09375,-48.0625 0,-26.55874 -21.53501,-48.09375 -48.09375,-48.09375 -4.68927,0 -9.21508,0.68596 -13.5,1.9375 C 179.55399,77.998771 155.95822,57.25 127.28125,57.25 z m -31.40625,58.84375 63.53125,0 0,10.59375 -63.53125,0 z m 65.72337,0.0871 3.16598,4.83913 2.75973,-0.93543 -0.0241,1.44674 -3.21875,3.28125 -3.1875,-6.875 z m -65.72337,13.91294 63.53125,0 0,10.59375 -63.53125,0 z m 65.375,-0.81871 3.30533,6.16294 3.03842,-1.84119 -0.0937,1.93446 -3.56712,3.97799 -2.83913,-7.57174 z m -65.375,14.81871 63.53125,0 0,10.59375 -63.53125,0 z m 0,14 63.53125,0 0,10.59375 -63.53125,0 z"
     id="path3029"
     inkscape:connector-curvature="0"
     sodipodi:nodetypes="scsssccccssscscccccccccccccccccccccccccccccccccc" />
  <path
     style="fill:none;stroke:#ffffff;stroke-width:0.93305004000000002px;stroke-linecap:butt;stroke-linejoin:miter;stroke-opacity:1"
     d="m 100.56818,164.3576 55.80472,0"
     id="path3819"
     inkscape:connector-curvature="0" />
</svg>
